<?xml version="1.0" encoding="UTF-8" standalone="no"?>
<svg
   width="32"
   height="32"
   viewBox="0 0 32 32"
   fill="none"
   version="1.1"
   id="svg4"
   sodipodi:docname="bust.svg"
   inkscape:version="1.3 (0e150ed6c4, 2023-07-21)"
   xmlns:inkscape="http://www.inkscape.org/namespaces/inkscape"
   xmlns:sodipodi="http://sodipodi.sourceforge.net/DTD/sodipodi-0.dtd"
   xmlns="http://www.w3.org/2000/svg"
   xmlns:svg="http://www.w3.org/2000/svg">
  <defs
     id="defs4" />
  <sodipodi:namedview
     id="namedview4"
     pagecolor="#ffffff"
     bordercolor="#666666"
     borderopacity="1.0"
     inkscape:showpageshadow="2"
     inkscape:pageopacity="0.0"
     inkscape:pagecheckerboard="0"
     inkscape:deskcolor="#d1d1d1"
     inkscape:zoom="17.147339"
     inkscape:cx="17.378789"
     inkscape:cy="10.905482"
     inkscape:window-width="1920"
     inkscape:window-height="1017"
     inkscape:window-x="2552"
     inkscape:window-y="352"
     inkscape:window-maximized="1"
     inkscape:current-layer="svg4" />
  <path
     d="m 24.809895,28.929995 0.6905,-2.93 -0.6905,-3.07 c -2.3918,-2.2297 -5.5401,-3.4696 -8.81,-3.4696 -3.27,0 -6.4182501,1.2399 -8.8100501,3.4696 l -0.68945,3.07 0.68945,2.93 z"
     fill="#321b41"
     id="path1" />
  <path
     d="m 17.339895,3.070005 h -2.69 c -0.7118,8.9e-4 -1.4152,0.15376 -2.0632,0.44838 -0.648,0.29462 -1.2256,0.72421 -1.69425,1.26003 -0.4686,0.53582 -0.8174,1.16552 -1.02306,1.84699 -0.20566,0.68147 -0.26344,1.399 -0.16948,2.1046 l 0.07809,1.20426 c -0.95626,0.14993 -1.6877601,0.97743 -1.6877601,1.97573 0,1.0864 0.86613,1.9704 1.9455101,1.9993 l 0.11416,1.7607 c 0.15266,1.1408 0.71436,2.1874 1.58069,2.9452 0.6064,0.5305 1.3333,0.8942 2.1096,1.0645 v 1.1003 c 0,0.5623 0.2234,1.1015 0.621,1.4991 0.3976,0.3976 0.9368,0.6209 1.499,0.6209 0.5623,0 1.1015,-0.2233 1.4991,-0.6209 0.3976,-0.3976 0.6209,-0.9368 0.6209,-1.4991 v -1.0816 c 0.8099,-0.1614 1.5694,-0.5324 2.199,-1.0832 0.8664,-0.7578 1.4281,-1.8044 1.5807,-2.9452 l 0.1093,-1.7641 c 1.0445,-0.0664 1.871,-0.9346 1.871,-1.9959 0,-0.9766 -0.6999,-1.7897 -1.6256,-1.96498 l 0.0753,-1.21501 c 0.094,-0.7056 0.0362,-1.42313 -0.1695,-2.1046 -0.2056,-0.68147 -0.5544,-1.31117 -1.023,-1.84699 -0.4686,-0.53582 -1.0462,-0.96541 -1.6942,-1.26003 -0.648,-0.29462 -1.3515,-0.44749 -2.0633,-0.44838 z"
     fill="#533566"
     id="path2" />
  <path
     d="m 7.190005,22.919995 v 6 l -3.59,-0.04 c 0.02406,-0.1083 0.05411,-0.2151 0.09,-0.32 v -0.11 c 0.67232,-2.1134 1.87772,-4.0179 3.5,-5.53 z"
     fill="#533566"
     id="path3" />
  <path
     d="m 24.809995,22.919995 v 6 l 3.59,-0.04 c -0.0071,-0.0196 -0.0146,-0.0392 -0.022,-0.0587 -0.0342,-0.0901 -0.068,-0.1791 -0.068,-0.2613 v -0.11 c -0.676,-2.1117 -1.8809,-4.0153 -3.5,-5.53 z"
     fill="#533566"
     id="path4" />
</svg>
