<?xml version="1.0" encoding="UTF-8" standalone="no"?>
<svg
   width="32"
   height="32"
   viewBox="0 0 32 32"
   fill="none"
   version="1.1"
   id="svg4"
   sodipodi:docname="bust.svg"
   inkscape:version="1.3 (0e150ed6c4, 2023-07-21)"
   xmlns:inkscape="http://www.inkscape.org/namespaces/inkscape"
   xmlns:sodipodi="http://sodipodi.sourceforge.net/DTD/sodipodi-0.dtd"
   xmlns="http://www.w3.org/2000/svg"
   xmlns:svg="http://www.w3.org/2000/svg">
  <defs
     id="defs4" />
  <sodipodi:namedview
     id="namedview4"
     pagecolor="#ffffff"
     bordercolor="#666666"
     borderopacity="1.0"
     inkscape:showpageshadow="2"
     inkscape:pageopacity="0.0"
     inkscape:pagecheckerboard="0"
     inkscape:deskcolor="#d1d1d1"
     inkscape:zoom="17.147339"
     inkscape:cx="16.678973"
     inkscape:cy="13.938023"
     inkscape:window-width="1920"
     inkscape:window-height="1017"
     inkscape:window-x="2552"
     inkscape:window-y="352"
     inkscape:window-maximized="1"
     inkscape:current-layer="svg4" />
  <path
     id="path1"
     style="fill:#000000;stroke:#ffffff;stroke-opacity:1"
     d="M 14.650391 3.0703125 C 13.938591 3.0712025 13.233937 3.2229584 12.585938 3.5175781 C 11.937938 3.8121978 11.361228 4.2434774 10.892578 4.7792969 C 10.423979 5.3151163 10.0748 5.9435307 9.8691406 6.625 C 9.6634808 7.3064693 9.6052588 8.0248695 9.6992188 8.7304688 L 9.7773438 9.9335938 C 8.8210847 10.083524 8.0898438 10.911857 8.0898438 11.910156 C 8.0898438 12.996555 8.9557772 13.881256 10.035156 13.910156 L 10.150391 15.669922 C 10.30305 16.810721 10.86414 17.857435 11.730469 18.615234 C 12.3159 19.12739 13.01369 19.482863 13.759766 19.660156 C 11.315229 20.090679 9.0282188 21.215541 7.1894531 22.929688 L 7.1894531 22.919922 C 5.5671747 24.43202 4.3617725 26.335821 3.6894531 28.449219 L 3.6894531 28.560547 C 3.6535632 28.665447 3.6236694 28.772559 3.5996094 28.880859 L 7.1875 28.919922 L 7.1894531 28.929688 L 24.810547 28.929688 L 24.8125 28.919922 L 28.400391 28.880859 C 28.393291 28.861259 28.386306 28.841766 28.378906 28.822266 C 28.344706 28.732166 28.310547 28.642747 28.310547 28.560547 L 28.310547 28.449219 C 27.634548 26.337521 26.429645 24.43462 24.810547 22.919922 L 24.810547 22.929688 C 22.973207 21.21687 20.688457 20.091428 18.246094 19.660156 C 18.993267 19.483093 19.69315 19.128019 20.279297 18.615234 C 21.145696 17.857435 21.706775 16.810721 21.859375 15.669922 L 21.96875 13.90625 C 23.013249 13.83985 23.839844 12.971455 23.839844 11.910156 C 23.839844 10.933557 23.140543 10.120592 22.214844 9.9453125 L 22.289062 8.7304688 C 22.383062 8.0248695 22.326794 7.3064693 22.121094 6.625 C 21.915494 5.9435307 21.566256 5.3151163 21.097656 4.7792969 C 20.629057 4.2434774 20.050343 3.8121978 19.402344 3.5175781 C 18.754344 3.2229584 18.051643 3.0712025 17.339844 3.0703125 L 14.650391 3.0703125 z " />
</svg>
