<?xml version="1.0" encoding="UTF-8" standalone="no"?>
<svg width="32" height="32" viewBox="0 0 32 32" fill="none" version="1.1" id="svg2" sodipodi:docname="broken_heart.svg"
	xmlns:inkscape="http://www.inkscape.org/namespaces/inkscape"
	xmlns:sodipodi="http://sodipodi.sourceforge.net/DTD/sodipodi-0.dtd" xmlns="http://www.w3.org/2000/svg"
	xmlns:svg="http://www.w3.org/2000/svg">
	<defs id="defs2" />
	<sodipodi:namedview id="namedview2" pagecolor="#ffffff" bordercolor="#666666" borderopacity="1.0"
		inkscape:showpageshadow="2" inkscape:pageopacity="0.0" inkscape:pagecheckerboard="0" inkscape:deskcolor="#d1d1d1" />
	<path
		d="m 15.3913,25.7437 c -0.132,0.182 -0.2031,0.3844 -0.2031,0.6069 l -0.0203,3.0753 c 0,0.4653 -0.5283,0.7385 -0.9143,0.4653 C 10.7895,27.4533 3.83079,21.8996 2.2562,15.7692 1.06763,11.1361 4.01365,4.92484 11.1145,6.159 c 1.7372,0.30348 3.4032,1.52752 4.1448,2.68075 0.0914,0.13151 0.2641,0.59685 0.2641,0.59685 0.0051,0.01011 0.0076,0.0177 0.0102,0.02529 0.0025,0.00758 0.005,0.01517 0.0101,0.02529 l 1.3918,3.72272 c 0.1219,0.3338 0.0711,0.7081 -0.1524,0.9812 l -0.6299,0.7992 c -0.0101,0.0101 -0.0203,0.0228 -0.0304,0.0354 -0.0102,0.0127 -0.0203,0.0253 -0.0305,0.0354 l -1.7067,1.7804 c -0.3047,0.3238 -0.3657,0.7992 -0.1523,1.1836 l 2.6311,4.795 c 0.193,0.344 0.1625,0.779 -0.0813,1.0926 z"
		fill="currentColor" id="black" />
	<path
		d="M 16.9289,8.32019 C 17.8637,7.3415 19.1169,6.44352 20.7502,6.16102 27.951,4.92 30.9299,11.115 29.7486,15.736 c -1.6025,6.1749 -8.7519,11.7544 -12.2239,14.1557 -0.3903,0.2724 -0.9245,0 -0.9245,-0.4742 l 0.0206,-2.4316 c 0,-0.2219 0.0719,-0.4338 0.2054,-0.6053 l 1.7976,-2.3307 c 0.2466,-0.3128 0.2774,-0.7366 0.0822,-1.0897 L 16.1277,18.319 c -0.2157,-0.3834 -0.1541,-0.8677 0.1541,-1.1805 l 0.7499,-0.7769 c 0.0102,-0.0101 0.0205,-0.0227 0.0308,-0.0353 0.0102,-0.0126 0.0205,-0.0252 0.0308,-0.0353 l 1.4176,-1.7556 c 0.2157,-0.2724 0.2773,-0.6458 0.154,-0.9787 L 16.8365,8.72377 C 16.8262,8.71368 16.8057,8.63296 16.8057,8.57243 c 0,-0.15135 0.1232,-0.25224 0.1232,-0.25224 z"
		fill="currentColor" id="black" />
</svg>