<?xml version="1.0" encoding="UTF-8" standalone="no"?>
<svg width="32" height="32" viewBox="0 0 32 32" fill="none" version="1.1" id="svg6" xmlns="http://www.w3.org/2000/svg"
	xmlns:svg="http://www.w3.org/2000/svg">
	<defs id="defs6" />
	<path
		d="m 15.9989,29.9978 c 9.3344,0 13.9989,-6.2675 13.9989,-13.9989 C 29.9978,8.26751 25.3333,2 15.9989,2 6.66443,2 2,8.26751 2,15.9989 2,23.7303 6.66443,29.9978 15.9989,29.9978 Z"
		fill="currentColor" id="black"  />
	<path
		d="m 11,15 c 1.6569,0 3,-1.3431 3,-3 0,-1.6569 -1.3431,-3 -3,-3 -1.65685,0 -3,1.3431 -3,3 0,1.6569 1.34315,3 3,3 z"
		fill="black" id="white" />
	<path
		d="m 21,15 c 1.6569,0 3,-1.3431 3,-3 0,-1.6569 -1.3431,-3 -3,-3 -1.6569,0 -3,1.3431 -3,3 0,1.6569 1.3431,3 3,3 z"
		fill="black" id="white" />
	<path
		d="m 10,20 c 0,-0.5523 0.4477,-1 1,-1 h 10 c 0.5523,0 1,0.4477 1,1 0,0.5523 -0.4477,1 -1,1 H 11 c -0.5523,0 -1,-0.4477 -1,-1 z"
		fill="black" id="white" />
</svg>