<?xml version="1.0" encoding="UTF-8" standalone="no"?>
<svg width="32" height="32" viewBox="0 0 32 32" fill="none" version="1.1" id="svg2" sodipodi:docname="question_mark.svg"
   xmlns:inkscape="http://www.inkscape.org/namespaces/inkscape"
   xmlns:sodipodi="http://sodipodi.sourceforge.net/DTD/sodipodi-0.dtd" xmlns="http://www.w3.org/2000/svg"
   xmlns:svg="http://www.w3.org/2000/svg">
   <defs id="defs2" />
   <sodipodi:namedview id="namedview2" pagecolor="#ffffff" bordercolor="#666666" borderopacity="1.0"
      inkscape:showpageshadow="2" inkscape:pageopacity="0.0" inkscape:pagecheckerboard="0"
      inkscape:deskcolor="#d1d1d1" />
   <path
      d="m 13.0372,20.8626 c 0,1.3022 1.1451,2.3595 2.5552,2.3595 1.4101,0 2.5551,-1.0573 2.5551,-2.3693 v -1.7022 c 0,-0.1111 0.0737,-0.2085 0.1796,-0.242 C 21.6766,17.8508 24,14.9188 24,11.5616 V 10.3084 C 24,6.0691 20.3104,2.53471 15.7726,2.4466 13.4931,2.39764 11.3409,3.19068 9.70813,4.65926 8.08598,6.12784 7.18478,8.10553 7.18478,10.2105 c 0,1.3119 1.15565,2.3693 2.56576,2.3693 1.41006,0 2.55516,-1.0574 2.55516,-2.3595 0,-0.82242 0.3499,-1.59587 0.986,-2.17351 0.6361,-0.57764 1.4737,-0.89094 2.3749,-0.87136 1.7812,0.03916 3.2231,1.449 3.2231,3.14277 v 1.2434 c 0,1.4686 -1.1238,2.7316 -2.6824,2.9959 -1.8342,0.3133 -3.1701,1.7917 -3.1701,3.5148 z"
      fill="currentColor" id="black"  />
   <path
      d="M 15.5,30 C 16.8807,30 18,28.8807 18,27.5 18,26.1193 16.8807,25 15.5,25 14.1193,25 13,26.1193 13,27.5 c 0,1.3807 1.1193,2.5 2.5,2.5 z"
      fill="currentColor" id="black"  />
</svg>