<?xml version="1.0" encoding="UTF-8" standalone="no"?>
<svg width="32" height="32" viewBox="0 0 32 32" fill="none" version="1.1" id="svg6" sodipodi:docname="smile.svg"
   xmlns:inkscape="http://www.inkscape.org/namespaces/inkscape"
   xmlns:sodipodi="http://sodipodi.sourceforge.net/DTD/sodipodi-0.dtd" xmlns="http://www.w3.org/2000/svg"
   xmlns:svg="http://www.w3.org/2000/svg">
   <defs id="defs6" />
   <sodipodi:namedview id="namedview6" pagecolor="#ffffff" bordercolor="#666666" borderopacity="1.0"
      inkscape:showpageshadow="2" inkscape:pageopacity="0.0" inkscape:pagecheckerboard="0"
      inkscape:deskcolor="#d1d1d1" />
   <path
      d="m 15.9989,29.9978 c 9.3344,0 13.9989,-6.2675 13.9989,-13.9989 C 29.9978,8.26751 25.3333,2 15.9989,2 6.66443,2 2,8.26751 2,15.9989 2,23.7303 6.66443,29.9978 15.9989,29.9978 Z"
      fill="currentColor" id="black" inkscape:export-filename="path1.svg" inkscape:export-xdpi="192"
      inkscape:export-ydpi="192" />
   <path
      d="m 11,15 c 1.6569,0 3,-1.3431 3,-3 0,-1.6569 -1.3431,-3 -3,-3 -1.65685,0 -3,1.3431 -3,3 0,1.6569 1.34315,3 3,3 z"
      fill="black" id="white" />
   <path
      d="m 21,15 c 1.6569,0 3,-1.3431 3,-3 0,-1.6569 -1.3431,-3 -3,-3 -1.6569,0 -3,1.3431 -3,3 0,1.6569 1.3431,3 3,3 z"
      fill="black" id="white" />
   <path fill-rule="evenodd" clip-rule="evenodd"
      d="m 10.4001,18.2001 c 0.4418,-0.3314 1.0686,-0.2419 1.4,0.2 0.3093,0.4124 1.7117,1.6 4.2,1.6 2.4882,0 3.8906,-1.1876 4.2,-1.6 0.3313,-0.4419 0.9581,-0.5314 1.4,-0.2 0.4418,0.3313 0.5313,0.9581 0.2,1.4 -0.6907,0.9208 -2.6883,2.4 -5.8,2.4 -3.1118,0 -5.1094,-1.4792 -5.8,-2.4 -0.33141,-0.4419 -0.24187,-1.0687 0.2,-1.4 z"
      fill="black" id="white" />
</svg>