<svg width="32" height="32" viewBox="0 0 32 32" fill="none" version="1.1" id="svg2" xmlns="http://www.w3.org/2000/svg"
   xmlns:svg="http://www.w3.org/2000/svg">
   <path
      d="m 12.3125,5.53122 c 0,-2.9 2.125,-3.58333 3.3125,-3.5625 2.4125,0 3.0823,2.00899 3.2812,3.07809 0.2474,1.32936 0.0053,4.50907 -0.1058,5.96879 l -0.0031,0.0417 c 0.1587,-0.0372 0.3301,-0.0574 0.5152,-0.0574 H 23.17 c 1.56,0 2.83,1.27 2.83,2.83 0,0.8061 -0.2586,1.5347 -0.7654,2.0508 1.0443,0.4607 1.7654,1.4277 1.7654,2.543 0,1.0229 -0.4627,1.9211 -1.3643,2.4184 C 26.4591,21.353 27,22.2078 27,23.1737 c 0,1.1077 -0.5426,2.0692 -1.5976,2.5336 0.3743,0.386 0.5976,0.9604 0.5976,1.7942 0,1.379 -0.9688,2.5016 -2.83,2.5016 h -3.8575 c -0.0454,0 -0.0901,-0.001 -0.1342,-0.0032 H 16.0469 C 5.60938,30.1718 5,23.4062 5,20.6562 5,15.5001 7.29793,13.9674 9.34062,12.605 10.3064,11.9608 11.215,11.3547 11.7969,10.4218 12.285,9.63906 12.3125,8.92181 12.3125,5.53122 Z"
      fill="currentColor" id="black" />
   <path
      d="m 19,11 c -1.0208,0.0312 -4,0.5937 -4,2.9687 0,1.2501 0.4688,1.9532 1.0313,2.3438 -0.5625,0.25 -1.0625,1.1781 -1.0625,2.3281 0,1.2813 1.0625,2.2188 1.0625,2.2188 0,0 -1.0625,1.0312 -1.0625,2.2656 0,0.932 0.4086,1.6196 1.0625,2.0883 -0.3542,0.1997 -1.0625,0.8929 -1.0625,2.0679 0,1.4012 1.3082,2.5748 3.8704,2.6799 -1.2484,-0.2311 -1.8548,-1.3749 -1.8548,-2.4595 0,-0.3585 0.1341,-0.9341 0.467,-1.4428 H 23 c 0.2761,0 0.5,-0.2239 0.5,-0.5 0,-0.2762 -0.2239,-0.5 -0.5,-0.5 h -5.4111 c -0.4051,-0.5301 -0.6045,-1.2175 -0.6045,-1.885 0,-0.4154 0.1563,-1.0883 0.546,-1.6738 H 23 c 0.2761,0 0.5,-0.2239 0.5,-0.5 0,-0.2761 -0.2239,-0.5 -0.5,-0.5 h -5.2493 c -0.5139,-0.5491 -0.7663,-1.3252 -0.7663,-2.0762 0,-0.3573 0.1156,-0.905 0.3959,-1.4238 H 23 c 0.2761,0 0.5,-0.2239 0.5,-0.5 C 23.5,16.2239 23.2761,16 23,16 h -5.1732 c -0.5634,-0.5965 -0.8424,-1.4836 -0.8424,-2.17 0,-0.81 0.4422,-2.5997 2.0158,-2.8098 z"
      fill="#000" id="white" />
</svg>