<?xml version="1.0" encoding="UTF-8" standalone="no"?>
<svg width="32" height="32" viewBox="0 0 32 32" fill="none" version="1.1" id="svg3" sodipodi:docname="warning.svg"
   inkscape:version="1.3 (0e150ed6c4, 2023-07-21)" xmlns:inkscape="http://www.inkscape.org/namespaces/inkscape"
   xmlns:sodipodi="http://sodipodi.sourceforge.net/DTD/sodipodi-0.dtd" xmlns="http://www.w3.org/2000/svg"
   xmlns:svg="http://www.w3.org/2000/svg">
   <defs id="defs3" />
   <sodipodi:namedview id="namedview3" pagecolor="#ffffff" bordercolor="#666666" borderopacity="1.0"
      inkscape:showpageshadow="2" inkscape:pageopacity="0.0" inkscape:pagecheckerboard="0" inkscape:deskcolor="#d1d1d1"
      inkscape:zoom="17.147339" inkscape:cx="19.128332" inkscape:cy="10.9638" inkscape:window-width="1920"
      inkscape:window-height="1017" inkscape:window-x="2552" inkscape:window-y="352" inkscape:window-maximized="1"
      inkscape:current-layer="svg3" />
   <path
      d="m 14.839,5.6675 -12.66001,21.93 c -0.51,0.89 0.13,2.01 1.16,2.01 H 28.659 c 1.03,0 1.67,-1.11 1.16,-2.01 l -12.66,-21.93 c -0.52,-0.89 -1.8,-0.89 -2.32,0 z"
      fill="currentColor" id="black" />
   <path
      d="m 14.599,21.4975 c 0,0.77 0.62,1.4 1.4,1.4 0.78,0 1.4,-0.63 1.4,-1.41 v -9.16 c 0,-0.77 -0.62,-1.4 -1.4,-1.4 -0.77,0 -1.4,0.62 -1.4,1.4 z"
      fill="black" id="white" />
   <path
      d="m 17.399,25.4775 c 0,0.7732 -0.6268,1.4 -1.4,1.4 -0.7732,0 -1.4,-0.6268 -1.4,-1.4 0,-0.7732 0.6268,-1.4 1.4,-1.4 0.7732,0 1.4,0.6268 1.4,1.4 z"
      fill="black" id="white" />
</svg>